# Blender 4.2.2 LTS
# www.blender.org
mtllib mainaura.mtl
o Cylinder.002
v -4.913982 -0.000001 -8.655713
v -0.000000 0.000000 -4.438652
v -4.913982 -1.688647 -8.489396
v 0.000000 -0.865938 -4.353364
v -4.913982 -3.312399 -7.996834
v 0.000000 -1.698599 -4.100779
v -4.913982 -4.808859 -7.196962
v 0.000000 -2.465983 -3.690603
v -4.913982 -6.120515 -6.120513
v 0.000000 -3.138601 -3.138601
v -4.913982 -7.196964 -4.808857
v 0.000000 -3.690603 -2.465983
v -4.913982 -7.996837 -3.312398
v 0.000000 -4.100779 -1.698599
v -4.913982 -8.489396 -1.688646
v 0.000000 -4.353364 -0.865938
v -4.913982 -8.655714 -0.000000
v 0.000000 -4.438652 -0.000000
v -4.913982 -8.489396 1.688646
v 0.000000 -4.353364 0.865938
v -4.913982 -7.996837 3.312398
v 0.000000 -4.100779 1.698599
v -4.913982 -7.196964 4.808857
v 0.000000 -3.690603 2.465983
v -4.913982 -6.120515 6.120513
v 0.000000 -3.138601 3.138601
v -4.913982 -4.808859 7.196962
v 0.000000 -2.465983 3.690603
v -4.913982 -3.312399 7.996834
v 0.000000 -1.698599 4.100779
v -4.913982 -1.688647 8.489396
v 0.000000 -0.865938 4.353364
v -4.913982 -0.000001 8.655713
v -0.000000 0.000000 4.438652
v -4.913982 1.688645 8.489396
v -0.000000 0.865938 4.353364
v -4.913983 3.312397 7.996834
v -0.000000 1.698599 4.100779
v -4.913983 4.808856 7.196962
v -0.000000 2.465983 3.690603
v -4.913983 6.120512 6.120513
v -0.000000 3.138601 3.138601
v -4.913983 7.196960 4.808857
v -0.000000 3.690603 2.465983
v -4.913983 7.996833 3.312398
v -0.000000 4.100779 1.698599
v -4.913983 8.489394 1.688646
v -0.000000 4.353364 0.865938
v -4.913983 8.655712 -0.000000
v -0.000000 4.438652 -0.000000
v -4.913983 8.489394 -1.688646
v -0.000000 4.353364 -0.865938
v -4.913983 7.996833 -3.312398
v -0.000000 4.100779 -1.698599
v -4.913983 7.196960 -4.808857
v -0.000000 3.690603 -2.465983
v -4.913983 6.120512 -6.120513
v -0.000000 3.138601 -3.138601
v -4.913983 4.808856 -7.196962
v -0.000000 2.465983 -3.690603
v -4.913983 3.312397 -7.996834
v -0.000000 1.698599 -4.100779
v -4.913982 1.688645 -8.489396
v -0.000000 0.865938 -4.353364
v 0.712820 0.000000 -2.687395
v 0.712820 -0.524285 -2.635757
v 0.712820 -1.028422 -2.482829
v 0.712820 -1.493037 -2.234487
v 0.712820 -1.900275 -1.900275
v 0.712820 -2.234487 -1.493037
v 0.712820 -2.482829 -1.028422
v 0.712820 -2.635757 -0.524285
v 0.712820 -2.687395 -0.000000
v 0.712820 -2.635757 0.524285
v 0.712820 -2.482829 1.028422
v 0.712820 -2.234487 1.493037
v 0.712820 -1.900275 1.900275
v 0.712820 -1.493037 2.234487
v 0.712820 -1.028422 2.482829
v 0.712820 -0.524285 2.635757
v 0.712820 0.000000 2.687395
v 0.712820 0.524285 2.635757
v 0.712820 1.028422 2.482829
v 0.712820 1.493037 2.234487
v 0.712820 1.900275 1.900275
v 0.712820 2.234487 1.493037
v 0.712820 2.482829 1.028422
v 0.712820 2.635757 0.524285
v 0.712820 2.687395 -0.000000
v 0.712820 2.635757 -0.524285
v 0.712820 2.482829 -1.028422
v 0.712820 2.234487 -1.493037
v 0.712820 1.900275 -1.900275
v 0.712820 1.493037 -2.234487
v 0.712820 1.028422 -2.482829
v 0.712820 0.524285 -2.635757
v -1.461284 -0.000000 -5.953846
v -1.461284 -1.161538 -5.839446
v -1.461284 -2.278439 -5.500637
v -1.461283 -3.307781 -4.950443
v -1.461283 -4.210006 -4.210006
v -1.461283 -4.950444 -3.307781
v -1.461283 -5.500638 -2.278439
v -1.461283 -5.839446 -1.161538
v -1.461283 -5.953847 -0.000000
v -1.461283 -5.839446 1.161538
v -1.461283 -5.500638 2.278439
v -1.461283 -4.950444 3.307781
v -1.461283 -4.210006 4.210006
v -1.461283 -3.307781 4.950443
v -1.461284 -2.278439 5.500637
v -1.461284 -1.161538 5.839446
v -1.461284 -0.000000 5.953846
v -1.461284 1.161538 5.839446
v -1.461284 2.278439 5.500637
v -1.461284 3.307780 4.950443
v -1.461284 4.210006 4.210006
v -1.461284 4.950443 3.307781
v -1.461284 5.500637 2.278439
v -1.461284 5.839445 1.161538
v -1.461284 5.953846 -0.000000
v -1.461284 5.839445 -1.161538
v -1.461284 5.500637 -2.278439
v -1.461284 4.950443 -3.307781
v -1.461284 4.210006 -4.210006
v -1.461284 3.307780 -4.950443
v -1.461284 2.278439 -5.500637
v -1.461284 1.161538 -5.839446
vn 0.6163 -0.0000 -0.7875
vn 0.8319 -0.0000 -0.5549
vn 0.6163 -0.1536 -0.7724
vn 0.8319 -0.1083 -0.5443
vn 0.6163 -0.3014 -0.7276
vn 0.8319 -0.2124 -0.5127
vn 0.6163 -0.4375 -0.6548
vn 0.8319 -0.3083 -0.4614
vn 0.6163 -0.5569 -0.5569
vn 0.8319 -0.3924 -0.3924
vn 0.6163 -0.6548 -0.4375
vn 0.8319 -0.4614 -0.3083
vn 0.6163 -0.7276 -0.3014
vn 0.8319 -0.5127 -0.2124
vn 0.6163 -0.7724 -0.1536
vn 0.8319 -0.5443 -0.1083
vn 0.6163 -0.7875 -0.0000
vn 0.8319 -0.5549 -0.0000
vn 0.6163 -0.7724 0.1536
vn 0.8319 -0.5443 0.1083
vn 0.6163 -0.7276 0.3014
vn 0.8319 -0.5127 0.2124
vn 0.6163 -0.6548 0.4375
vn 0.8319 -0.4614 0.3083
vn 0.6163 -0.5569 0.5569
vn 0.8319 -0.3924 0.3924
vn 0.6163 -0.4375 0.6548
vn 0.8319 -0.3083 0.4614
vn 0.6163 -0.3014 0.7276
vn 0.8319 -0.2124 0.5127
vn 0.6163 -0.1536 0.7724
vn 0.8319 -0.1083 0.5443
vn 0.6163 -0.0000 0.7875
vn 0.8319 -0.0000 0.5549
vn 0.6163 0.1536 0.7724
vn 0.8319 0.1083 0.5443
vn 0.6163 0.3014 0.7276
vn 0.8319 0.2124 0.5127
vn 0.6163 0.4375 0.6548
vn 0.8319 0.3083 0.4614
vn 0.6163 0.5569 0.5569
vn 0.8319 0.3924 0.3924
vn 0.6163 0.6548 0.4375
vn 0.8319 0.4614 0.3083
vn 0.6163 0.7276 0.3014
vn 0.8319 0.5127 0.2124
vn 0.6163 0.7724 0.1536
vn 0.8319 0.5443 0.1083
vn 0.6163 0.7875 -0.0000
vn 0.8319 0.5549 -0.0000
vn 0.6163 0.7724 -0.1536
vn 0.8319 0.5443 -0.1083
vn 0.6163 0.7276 -0.3014
vn 0.8319 0.5127 -0.2124
vn 0.6163 0.6548 -0.4375
vn 0.8319 0.4614 -0.3083
vn 0.6163 0.5569 -0.5569
vn 0.8319 0.3924 -0.3924
vn 0.6163 0.4375 -0.6548
vn 0.8319 0.3083 -0.4614
vn 0.6163 0.3014 -0.7276
vn 0.8319 0.2124 -0.5127
vn 0.6163 0.1536 -0.7724
vn 0.8319 0.1083 -0.5443
vn 0.9262 -0.0000 -0.3770
vn 0.9262 -0.0735 -0.3698
vn 0.9262 -0.1443 -0.3483
vn 0.9262 -0.2094 -0.3135
vn 0.9262 -0.2666 -0.2666
vn 0.9262 -0.3135 -0.2094
vn 0.9262 -0.3483 -0.1443
vn 0.9262 -0.3698 -0.0735
vn 0.9262 -0.3770 -0.0000
vn 0.9262 -0.3698 0.0735
vn 0.9262 -0.3483 0.1443
vn 0.9262 -0.3135 0.2094
vn 0.9262 -0.2666 0.2666
vn 0.9262 -0.2094 0.3135
vn 0.9262 -0.1443 0.3483
vn 0.9262 -0.0735 0.3698
vn 0.9262 -0.0000 0.3770
vn 0.9262 0.0735 0.3698
vn 0.9262 0.1443 0.3483
vn 0.9262 0.2094 0.3135
vn 0.9262 0.2666 0.2666
vn 0.9262 0.3135 0.2094
vn 0.9262 0.3483 0.1443
vn 0.9262 0.3698 0.0735
vn 0.9262 0.3770 -0.0000
vn 0.9262 0.3698 -0.0735
vn 0.9262 0.3483 -0.1443
vn 0.9262 0.3135 -0.2094
vn 0.9262 0.2666 -0.2666
vn 0.9262 0.2094 -0.3135
vn 0.9262 0.1443 -0.3483
vn 0.9262 0.0735 -0.3698
vn 0.6673 -0.0000 -0.7448
vn 0.6673 -0.1453 -0.7305
vn 0.6673 -0.2850 -0.6881
vn 0.6673 -0.4138 -0.6193
vn 0.6673 -0.5266 -0.5266
vn 0.6673 -0.6193 -0.4138
vn 0.6673 -0.6881 -0.2850
vn 0.6673 -0.7305 -0.1453
vn 0.6673 -0.7448 -0.0000
vn 0.6673 -0.7305 0.1453
vn 0.6673 -0.6881 0.2850
vn 0.6673 -0.6193 0.4138
vn 0.6673 -0.5266 0.5266
vn 0.6673 -0.4138 0.6193
vn 0.6673 -0.2850 0.6881
vn 0.6673 -0.1453 0.7305
vn 0.6673 -0.0000 0.7448
vn 0.6673 0.1453 0.7305
vn 0.6673 0.2850 0.6881
vn 0.6673 0.4138 0.6193
vn 0.6673 0.5266 0.5266
vn 0.6673 0.6193 0.4138
vn 0.6673 0.6881 0.2850
vn 0.6673 0.7305 0.1453
vn 0.6673 0.7448 -0.0000
vn 0.6673 0.7305 -0.1453
vn 0.6673 0.6881 -0.2850
vn 0.6673 0.6193 -0.4138
vn 0.6673 0.5266 -0.5266
vn 0.6673 0.4138 -0.6193
vn 0.6673 0.2850 -0.6881
vn 0.6673 0.1453 -0.7305
vt 0.250488 0.512378
vt 0.250488 0.667922
vt 0.219299 0.667922
vt 0.219299 0.512378
vt 0.188110 0.667922
vt 0.188110 0.512378
vt 0.156921 0.667922
vt 0.156921 0.512378
vt 0.125732 0.667922
vt 0.125732 0.512378
vt 0.094543 0.667922
vt 0.094543 0.512378
vt 0.063354 0.667922
vt 0.063355 0.512378
vt 0.032166 0.667922
vt 0.032166 0.512378
vt 0.000977 0.667922
vt 0.000977 0.512378
vt 0.999023 0.512378
vt 0.999023 0.667922
vt 0.967834 0.667922
vt 0.967834 0.512378
vt 0.936645 0.667922
vt 0.936645 0.512378
vt 0.905456 0.667922
vt 0.905456 0.512378
vt 0.874267 0.667922
vt 0.874267 0.512378
vt 0.843078 0.667922
vt 0.843078 0.512378
vt 0.811890 0.667922
vt 0.811890 0.512378
vt 0.780701 0.667922
vt 0.780701 0.512378
vt 0.749512 0.667922
vt 0.749512 0.512378
vt 0.718323 0.667922
vt 0.718323 0.512378
vt 0.687134 0.667922
vt 0.687134 0.512378
vt 0.655945 0.667922
vt 0.655945 0.512378
vt 0.624756 0.667922
vt 0.624756 0.512378
vt 0.593567 0.667922
vt 0.593567 0.512378
vt 0.562378 0.667922
vt 0.562378 0.512378
vt 0.531189 0.667922
vt 0.531189 0.512378
vt 0.500000 0.667922
vt 0.500000 0.512378
vt 0.468811 0.667922
vt 0.468811 0.512378
vt 0.437622 0.667922
vt 0.437622 0.512378
vt 0.406433 0.667922
vt 0.406433 0.512378
vt 0.375244 0.667922
vt 0.375244 0.512378
vt 0.344055 0.667922
vt 0.344055 0.512378
vt 0.312866 0.667922
vt 0.312866 0.512378
vt 0.281677 0.667922
vt 0.281677 0.512378
vt 0.063354 0.809738
vt 0.032166 0.809738
vt 0.780701 0.809738
vt 0.749512 0.809738
vt 0.500000 0.809738
vt 0.468811 0.809738
vt 0.188110 0.809738
vt 0.156921 0.809738
vt 0.905456 0.809738
vt 0.874267 0.809738
vt 0.624756 0.809738
vt 0.593567 0.809738
vt 0.344055 0.809738
vt 0.312866 0.809738
vt 0.000977 0.809738
vt 0.718323 0.809738
vt 0.437622 0.809738
vt 0.125732 0.809738
vt 0.843078 0.809738
vt 0.562378 0.809738
vt 0.281677 0.809738
vt 0.999023 0.809738
vt 0.967834 0.809738
vt 0.687134 0.809738
vt 0.406433 0.809738
vt 0.094543 0.809738
vt 0.811890 0.809738
vt 0.531189 0.809738
vt 0.250488 0.809738
vt 0.219299 0.809738
vt 0.936645 0.809738
vt 0.655945 0.809738
vt 0.375244 0.809738
vt 0.281677 0.190430
vt 0.250488 0.190430
vt 0.312866 0.190430
vt 0.344055 0.190430
vt 0.375244 0.190430
vt 0.406433 0.190430
vt 0.437622 0.190430
vt 0.468811 0.190430
vt 0.500000 0.190430
vt 0.531189 0.190430
vt 0.562378 0.190430
vt 0.593567 0.190430
vt 0.624756 0.190430
vt 0.655945 0.190430
vt 0.687134 0.190430
vt 0.718323 0.190430
vt 0.749512 0.190430
vt 0.780701 0.190430
vt 0.811890 0.190430
vt 0.843079 0.190430
vt 0.874268 0.190430
vt 0.905457 0.190430
vt 0.936646 0.190430
vt 0.967834 0.190430
vt 0.999023 0.190430
vt 0.032166 0.190430
vt 0.000977 0.190430
vt 0.063355 0.190430
vt 0.094544 0.190430
vt 0.125733 0.190430
vt 0.156921 0.190430
vt 0.188110 0.190430
vt 0.219299 0.190430
s 1
f 97/1/97 2/2/2 4/3/4 98/4/98
f 98/4/98 4/3/4 6/5/6 99/6/99
f 99/6/99 6/5/6 8/7/8 100/8/100
f 100/8/100 8/7/8 10/9/10 101/10/101
f 101/10/101 10/9/10 12/11/12 102/12/102
f 102/12/102 12/11/12 14/13/14 103/14/103
f 103/14/103 14/13/14 16/15/16 104/16/104
f 104/16/104 16/15/16 18/17/18 105/18/105
f 105/19/105 18/20/18 20/21/20 106/22/106
f 106/22/106 20/21/20 22/23/22 107/24/107
f 107/24/107 22/23/22 24/25/24 108/26/108
f 108/26/108 24/25/24 26/27/26 109/28/109
f 109/28/109 26/27/26 28/29/28 110/30/110
f 110/30/110 28/29/28 30/31/30 111/32/111
f 111/32/111 30/31/30 32/33/32 112/34/112
f 112/34/112 32/33/32 34/35/34 113/36/113
f 113/36/113 34/35/34 36/37/36 114/38/114
f 114/38/114 36/37/36 38/39/38 115/40/115
f 115/40/115 38/39/38 40/41/40 116/42/116
f 116/42/116 40/41/40 42/43/42 117/44/117
f 117/44/117 42/43/42 44/45/44 118/46/118
f 118/46/118 44/45/44 46/47/46 119/48/119
f 119/48/119 46/47/46 48/49/48 120/50/120
f 120/50/120 48/49/48 50/51/50 121/52/121
f 121/52/121 50/51/50 52/53/52 122/54/122
f 122/54/122 52/53/52 54/55/54 123/56/123
f 123/56/123 54/55/54 56/57/56 124/58/124
f 124/58/124 56/57/56 58/59/58 125/60/125
f 125/60/125 58/59/58 60/61/60 126/62/126
f 126/62/126 60/61/60 62/63/62 127/64/127
f 127/64/127 62/63/62 64/65/64 128/66/128
f 128/66/128 64/65/64 2/2/2 97/1/97
f 16/15/16 14/13/14 71/67/71 72/68/72
f 34/35/34 32/33/32 80/69/80 81/70/81
f 52/53/52 50/51/50 89/71/89 90/72/90
f 8/7/8 6/5/6 67/73/67 68/74/68
f 26/27/26 24/25/24 76/75/76 77/76/77
f 44/45/44 42/43/42 85/77/85 86/78/86
f 62/63/62 60/61/60 94/79/94 95/80/95
f 18/17/18 16/15/16 72/68/72 73/81/73
f 36/37/36 34/35/34 81/70/81 82/82/82
f 54/55/54 52/53/52 90/72/90 91/83/91
f 10/9/10 8/7/8 68/74/68 69/84/69
f 28/29/28 26/27/26 77/76/77 78/85/78
f 46/47/46 44/45/44 86/78/86 87/86/87
f 64/65/64 62/63/62 95/80/95 96/87/96
f 20/21/20 18/20/18 73/88/73 74/89/74
f 38/39/38 36/37/36 82/82/82 83/90/83
f 56/57/56 54/55/54 91/83/91 92/91/92
f 12/11/12 10/9/10 69/84/69 70/92/70
f 30/31/30 28/29/28 78/85/78 79/93/79
f 48/49/48 46/47/46 87/86/87 88/94/88
f 4/3/4 2/2/2 65/95/65 66/96/66
f 2/2/2 64/65/64 96/87/96 65/95/65
f 22/23/22 20/21/20 74/89/74 75/97/75
f 40/41/40 38/39/38 83/90/83 84/98/84
f 58/59/58 56/57/56 92/91/92 93/99/93
f 14/13/14 12/11/12 70/92/70 71/67/71
f 32/33/32 30/31/30 79/93/79 80/69/80
f 50/51/50 48/49/48 88/94/88 89/71/89
f 6/5/6 4/3/4 66/96/66 67/73/67
f 24/25/24 22/23/22 75/97/75 76/75/76
f 42/43/42 40/41/40 84/98/84 85/77/85
f 60/61/60 58/59/58 93/99/93 94/79/94
f 63/100/63 128/66/128 97/1/97 1/101/1
f 61/102/61 127/64/127 128/66/128 63/100/63
f 59/103/59 126/62/126 127/64/127 61/102/61
f 57/104/57 125/60/125 126/62/126 59/103/59
f 55/105/55 124/58/124 125/60/125 57/104/57
f 53/106/53 123/56/123 124/58/124 55/105/55
f 51/107/51 122/54/122 123/56/123 53/106/53
f 49/108/49 121/52/121 122/54/122 51/107/51
f 47/109/47 120/50/120 121/52/121 49/108/49
f 45/110/45 119/48/119 120/50/120 47/109/47
f 43/111/43 118/46/118 119/48/119 45/110/45
f 41/112/41 117/44/117 118/46/118 43/111/43
f 39/113/39 116/42/116 117/44/117 41/112/41
f 37/114/37 115/40/115 116/42/116 39/113/39
f 35/115/35 114/38/114 115/40/115 37/114/37
f 33/116/33 113/36/113 114/38/114 35/115/35
f 31/117/31 112/34/112 113/36/113 33/116/33
f 29/118/29 111/32/111 112/34/112 31/117/31
f 27/119/27 110/30/110 111/32/111 29/118/29
f 25/120/25 109/28/109 110/30/110 27/119/27
f 23/121/23 108/26/108 109/28/109 25/120/25
f 21/122/21 107/24/107 108/26/108 23/121/23
f 19/123/19 106/22/106 107/24/107 21/122/21
f 17/124/17 105/19/105 106/22/106 19/123/19
f 15/125/15 104/16/104 105/18/105 17/126/17
f 13/127/13 103/14/103 104/16/104 15/125/15
f 11/128/11 102/12/102 103/14/103 13/127/13
f 9/129/9 101/10/101 102/12/102 11/128/11
f 7/130/7 100/8/100 101/10/101 9/129/9
f 5/131/5 99/6/99 100/8/100 7/130/7
f 3/132/3 98/4/98 99/6/99 5/131/5
f 1/101/1 97/1/97 98/4/98 3/132/3
