# Blender 4.2.2 LTS
# www.blender.org
mtllib mainbeam.mtl
o Cylinder.001
v -1.638505 -0.000001 -4.741517
v -0.000000 0.000000 -4.366354
v -1.638505 -0.925025 -4.650410
v 0.000000 -0.851833 -4.282455
v -1.638505 -1.814501 -4.380590
v 0.000000 -1.670931 -4.033984
v -1.638505 -2.634247 -3.942427
v 0.000000 -2.425816 -3.630490
v -1.638505 -3.352759 -3.352758
v 0.000000 -3.087478 -3.087478
v -1.638505 -3.942427 -2.634246
v 0.000000 -3.630490 -2.425816
v -1.638505 -4.380590 -1.814500
v 0.000000 -4.033984 -1.670931
v -1.638505 -4.650410 -0.925024
v 0.000000 -4.282455 -0.851833
v -1.638505 -4.741518 -0.000000
v 0.000000 -4.366354 -0.000000
v -1.638505 -4.650410 0.925024
v 0.000000 -4.282455 0.851833
v -1.638505 -4.380590 1.814500
v 0.000000 -4.033984 1.670931
v -1.638505 -3.942427 2.634246
v 0.000000 -3.630490 2.425816
v -1.638505 -3.352759 3.352758
v 0.000000 -3.087478 3.087478
v -1.638505 -2.634247 3.942427
v 0.000000 -2.425816 3.630490
v -1.638505 -1.814501 4.380590
v 0.000000 -1.670931 4.033984
v -1.638505 -0.925025 4.650410
v 0.000000 -0.851833 4.282455
v -1.638505 -0.000001 4.741517
v -0.000000 0.000000 4.366354
v -1.638505 0.925023 4.650410
v -0.000000 0.851833 4.282455
v -1.638505 1.814499 4.380590
v -0.000000 1.670931 4.033984
v -1.638506 2.634244 3.942427
v -0.000000 2.425816 3.630490
v -1.638506 3.352758 3.352758
v -0.000000 3.087478 3.087478
v -1.638506 3.942426 2.634246
v -0.000000 3.630490 2.425816
v -1.638506 4.380590 1.814500
v -0.000000 4.033984 1.670931
v -1.638506 4.650409 0.925024
v -0.000000 4.282455 0.851833
v -1.638506 4.741516 -0.000000
v -0.000000 4.366354 -0.000000
v -1.638506 4.650409 -0.925024
v -0.000000 4.282455 -0.851833
v -1.638506 4.380590 -1.814500
v -0.000000 4.033984 -1.670931
v -1.638506 3.942426 -2.634246
v -0.000000 3.630490 -2.425816
v -1.638506 3.352758 -3.352758
v -0.000000 3.087478 -3.087478
v -1.638506 2.634244 -3.942427
v -0.000000 2.425816 -3.630490
v -1.638505 1.814499 -4.380590
v -0.000000 1.670931 -4.033984
v -1.638505 0.925023 -4.650410
v -0.000000 0.851833 -4.282455
v -14.933850 -0.000001 -4.837680
v -14.933850 -0.943785 -4.744725
v -14.933850 -1.851301 -4.469433
v -14.933850 -2.687672 -4.022384
v -14.933850 -3.420757 -3.420756
v -14.933850 -4.022384 -2.687671
v -14.933850 -4.469434 -1.851300
v -14.933850 -4.744726 -0.943785
v -14.933850 -4.837681 -0.000000
v -14.933850 -4.744726 0.943785
v -14.933850 -4.469434 1.851300
v -14.933850 -4.022384 2.687671
v -14.933850 -3.420757 3.420756
v -14.933850 -2.687672 4.022384
v -14.933850 -1.851301 4.469433
v -14.933850 -0.943785 4.744725
v -14.933850 -0.000001 4.837680
v -14.933850 0.943784 4.744725
v -14.933850 1.851299 4.469433
v -14.933850 2.687670 4.022384
v -14.933850 3.420755 3.420756
v -14.933850 4.022383 2.687671
v -14.933850 4.469433 1.851300
v -14.933850 4.744725 0.943785
v -14.933850 4.837679 -0.000000
v -14.933850 4.744725 -0.943785
v -14.933850 4.469433 -1.851300
v -14.933850 4.022383 -2.687671
v -14.933850 3.420755 -3.420756
v -14.933850 2.687670 -4.022384
v -14.933850 1.851299 -4.469433
v -14.933850 0.943784 -4.744725
vn 0.1151 -0.0000 -0.9934
vn 0.2232 -0.0000 -0.9748
vn 0.1151 -0.1938 -0.9743
vn 0.2232 -0.1902 -0.9560
vn 0.1151 -0.3801 -0.9177
vn 0.2232 -0.3730 -0.9006
vn 0.1151 -0.5519 -0.8259
vn 0.2232 -0.5416 -0.8105
vn 0.1151 -0.7024 -0.7024
vn 0.2232 -0.6893 -0.6893
vn 0.1151 -0.8259 -0.5519
vn 0.2232 -0.8105 -0.5416
vn 0.1151 -0.9177 -0.3801
vn 0.2232 -0.9006 -0.3730
vn 0.1151 -0.9743 -0.1938
vn 0.2232 -0.9560 -0.1902
vn 0.1151 -0.9934 -0.0000
vn 0.2232 -0.9748 -0.0000
vn 0.1151 -0.9743 0.1938
vn 0.2232 -0.9560 0.1902
vn 0.1151 -0.9177 0.3801
vn 0.2232 -0.9006 0.3730
vn 0.1151 -0.8259 0.5519
vn 0.2232 -0.8105 0.5416
vn 0.1151 -0.7024 0.7024
vn 0.2232 -0.6893 0.6893
vn 0.1151 -0.5519 0.8259
vn 0.2232 -0.5416 0.8105
vn 0.1151 -0.3801 0.9177
vn 0.2232 -0.3730 0.9006
vn 0.1151 -0.1938 0.9743
vn 0.2232 -0.1902 0.9560
vn 0.1151 -0.0000 0.9934
vn 0.2232 -0.0000 0.9748
vn 0.1151 0.1938 0.9743
vn 0.2232 0.1902 0.9560
vn 0.1151 0.3801 0.9177
vn 0.2232 0.3730 0.9006
vn 0.1151 0.5519 0.8259
vn 0.2232 0.5416 0.8105
vn 0.1151 0.7024 0.7024
vn 0.2232 0.6893 0.6893
vn 0.1151 0.8259 0.5519
vn 0.2232 0.8105 0.5416
vn 0.1151 0.9177 0.3801
vn 0.2232 0.9006 0.3730
vn 0.1151 0.9743 0.1938
vn 0.2232 0.9560 0.1902
vn 0.1151 0.9934 -0.0000
vn 0.2232 0.9748 -0.0000
vn 0.1151 0.9743 -0.1938
vn 0.2232 0.9560 -0.1902
vn 0.1151 0.9177 -0.3801
vn 0.2232 0.9006 -0.3730
vn 0.1151 0.8259 -0.5519
vn 0.2232 0.8105 -0.5416
vn 0.1151 0.7024 -0.7024
vn 0.2232 0.6893 -0.6893
vn 0.1151 0.5519 -0.8259
vn 0.2232 0.5416 -0.8105
vn 0.1151 0.3801 -0.9177
vn 0.2232 0.3730 -0.9006
vn 0.1151 0.1938 -0.9743
vn 0.2232 0.1902 -0.9560
vn 0.0072 -0.0000 -1.0000
vn 0.0072 -0.1951 -0.9808
vn 0.0072 -0.3827 -0.9239
vn 0.0072 -0.5556 -0.8314
vn 0.0072 -0.7071 -0.7071
vn 0.0072 -0.8314 -0.5556
vn 0.0072 -0.9239 -0.3827
vn 0.0072 -0.9808 -0.1951
vn 0.0072 -1.0000 -0.0000
vn 0.0072 -0.9808 0.1951
vn 0.0072 -0.9239 0.3827
vn 0.0072 -0.8314 0.5556
vn 0.0072 -0.7071 0.7071
vn 0.0072 -0.5556 0.8314
vn 0.0072 -0.3827 0.9239
vn 0.0072 -0.1951 0.9808
vn 0.0072 -0.0000 1.0000
vn 0.0072 0.1951 0.9808
vn 0.0072 0.3827 0.9239
vn 0.0072 0.5556 0.8314
vn 0.0072 0.7071 0.7071
vn 0.0072 0.8314 0.5556
vn 0.0072 0.9239 0.3827
vn 0.0072 0.9808 0.1951
vn 0.0072 1.0000 -0.0000
vn 0.0072 0.9808 -0.1951
vn 0.0072 0.9239 -0.3827
vn 0.0072 0.8314 -0.5556
vn 0.0072 0.7071 -0.7071
vn 0.0072 0.5556 -0.8314
vn 0.0072 0.3827 -0.9239
vn 0.0072 0.1951 -0.9808
vt 0.058507 0.250488
vt 0.000977 0.250488
vt 0.000977 0.219299
vt 0.058507 0.219299
vt 0.000977 0.188110
vt 0.058507 0.188110
vt 0.000977 0.156921
vt 0.058507 0.156921
vt 0.000977 0.125732
vt 0.058507 0.125732
vt 0.000977 0.094543
vt 0.058507 0.094543
vt 0.000977 0.063354
vt 0.058507 0.063354
vt 0.000977 0.032166
vt 0.058507 0.032166
vt 0.000977 0.000977
vt 0.058507 0.000977
vt 0.058507 0.999023
vt 0.000977 0.999023
vt 0.000977 0.967834
vt 0.058507 0.967834
vt 0.000977 0.936646
vt 0.058507 0.936646
vt 0.000977 0.905457
vt 0.058507 0.905457
vt 0.000977 0.874268
vt 0.058507 0.874268
vt 0.000977 0.843079
vt 0.058507 0.843079
vt 0.000977 0.811890
vt 0.058507 0.811890
vt 0.000977 0.780701
vt 0.058507 0.780701
vt 0.000977 0.749512
vt 0.058507 0.749512
vt 0.000977 0.718323
vt 0.058507 0.718323
vt 0.000977 0.687134
vt 0.058507 0.687134
vt 0.000977 0.655945
vt 0.058507 0.655945
vt 0.000977 0.624756
vt 0.058507 0.624756
vt 0.000977 0.593567
vt 0.058507 0.593567
vt 0.000977 0.562378
vt 0.058507 0.562378
vt 0.000977 0.531189
vt 0.058507 0.531189
vt 0.000977 0.500000
vt 0.058507 0.500000
vt 0.000977 0.468811
vt 0.058507 0.468811
vt 0.000977 0.437622
vt 0.058507 0.437622
vt 0.000977 0.406433
vt 0.058507 0.406433
vt 0.000977 0.375244
vt 0.058507 0.375244
vt 0.000977 0.344055
vt 0.058507 0.344055
vt 0.000977 0.312866
vt 0.058507 0.312866
vt 0.000977 0.281677
vt 0.058507 0.281677
vt 0.513564 0.188110
vt 0.513564 0.219299
vt 0.513564 0.905457
vt 0.513564 0.936646
vt 0.513564 0.624756
vt 0.513564 0.655945
vt 0.513564 0.344055
vt 0.513564 0.375244
vt 0.513564 0.032166
vt 0.513564 0.063354
vt 0.513564 0.749512
vt 0.513564 0.780701
vt 0.513564 0.468811
vt 0.513564 0.500000
vt 0.513564 0.156921
vt 0.513564 0.874268
vt 0.513564 0.593567
vt 0.513564 0.312866
vt 0.513564 0.000977
vt 0.513564 0.718323
vt 0.513564 0.437622
vt 0.513564 0.125732
vt 0.513564 0.843079
vt 0.513564 0.562378
vt 0.513564 0.281677
vt 0.513564 0.967834
vt 0.513564 0.999023
vt 0.513564 0.687134
vt 0.513564 0.406433
vt 0.513564 0.094543
vt 0.513564 0.811890
vt 0.513564 0.531189
vt 0.513564 0.250488
s 1
f 1/1/1 2/2/2 4/3/4 3/4/3
f 3/4/3 4/3/4 6/5/6 5/6/5
f 5/6/5 6/5/6 8/7/8 7/8/7
f 7/8/7 8/7/8 10/9/10 9/10/9
f 9/10/9 10/9/10 12/11/12 11/12/11
f 11/12/11 12/11/12 14/13/14 13/14/13
f 13/14/13 14/13/14 16/15/16 15/16/15
f 15/16/15 16/15/16 18/17/18 17/18/17
f 17/19/17 18/20/18 20/21/20 19/22/19
f 19/22/19 20/21/20 22/23/22 21/24/21
f 21/24/21 22/23/22 24/25/24 23/26/23
f 23/26/23 24/25/24 26/27/26 25/28/25
f 25/28/25 26/27/26 28/29/28 27/30/27
f 27/30/27 28/29/28 30/31/30 29/32/29
f 29/32/29 30/31/30 32/33/32 31/34/31
f 31/34/31 32/33/32 34/35/34 33/36/33
f 33/36/33 34/35/34 36/37/36 35/38/35
f 35/38/35 36/37/36 38/39/38 37/40/37
f 37/40/37 38/39/38 40/41/40 39/42/39
f 39/42/39 40/41/40 42/43/42 41/44/41
f 41/44/41 42/43/42 44/45/44 43/46/43
f 43/46/43 44/45/44 46/47/46 45/48/45
f 45/48/45 46/47/46 48/49/48 47/50/47
f 47/50/47 48/49/48 50/51/50 49/52/49
f 49/52/49 50/51/50 52/53/52 51/54/51
f 51/54/51 52/53/52 54/55/54 53/56/53
f 53/56/53 54/55/54 56/57/56 55/58/55
f 55/58/55 56/57/56 58/59/58 57/60/57
f 57/60/57 58/59/58 60/61/60 59/62/59
f 59/62/59 60/61/60 62/63/62 61/64/61
f 61/64/61 62/63/62 64/65/64 63/66/63
f 63/66/63 64/65/64 2/2/2 1/1/1
f 3/4/3 5/6/5 67/67/67 66/68/66
f 21/24/21 23/26/23 76/69/76 75/70/75
f 39/42/39 41/44/41 85/71/85 84/72/84
f 57/60/57 59/62/59 94/73/94 93/74/93
f 13/14/13 15/16/15 72/75/72 71/76/71
f 31/34/31 33/36/33 81/77/81 80/78/80
f 49/52/49 51/54/51 90/79/90 89/80/89
f 5/6/5 7/8/7 68/81/68 67/67/67
f 23/26/23 25/28/25 77/82/77 76/69/76
f 41/44/41 43/46/43 86/83/86 85/71/85
f 59/62/59 61/64/61 95/84/95 94/73/94
f 15/16/15 17/18/17 73/85/73 72/75/72
f 33/36/33 35/38/35 82/86/82 81/77/81
f 51/54/51 53/56/53 91/87/91 90/79/90
f 7/8/7 9/10/9 69/88/69 68/81/68
f 25/28/25 27/30/27 78/89/78 77/82/77
f 43/46/43 45/48/45 87/90/87 86/83/86
f 61/64/61 63/66/63 96/91/96 95/84/95
f 17/19/17 19/22/19 74/92/74 73/93/73
f 35/38/35 37/40/37 83/94/83 82/86/82
f 53/56/53 55/58/55 92/95/92 91/87/91
f 9/10/9 11/12/11 70/96/70 69/88/69
f 27/30/27 29/32/29 79/97/79 78/89/78
f 45/48/45 47/50/47 88/98/88 87/90/87
f 1/1/1 3/4/3 66/68/66 65/99/65
f 63/66/63 1/1/1 65/99/65 96/91/96
f 19/22/19 21/24/21 75/70/75 74/92/74
f 37/40/37 39/42/39 84/72/84 83/94/83
f 55/58/55 57/60/57 93/74/93 92/95/92
f 11/12/11 13/14/13 71/76/71 70/96/70
f 29/32/29 31/34/31 80/78/80 79/97/79
f 47/50/47 49/52/49 89/80/89 88/98/88
